<svg height="512" viewBox="0 0 36 36" width="512" xmlns="http://www.w3.org/2000/svg"><path d="M31.833 27.623c0-6.917 3.583-11.667 3.583-15S33.5 2.29 18.167 2.29.583 11.707.583 15.373c0 17.167 31.25 24.5 31.25 12.25z" fill="#efefef"/><path d="M26.74 4.117l.708-.707 1.414 1.414-.707.707zM30.806 8.183l.707-.707 1.414 1.414-.707.707zM30.63 4.824l1.414-1.414.707.707-1.414 1.414zM5 16.5c-.827 0-1.5-.673-1.5-1.5s.673-1.5 1.5-1.5 1.5.673 1.5 1.5-.673 1.5-1.5 1.5zm0-2a.5.5 0 1 0 0 1 .5.5 0 0 0 0-1z" fill="#a4afc1"/><path d="M15.5 13.25l9 16H6.75z" fill="#2fdf84"/><path d="M21.673 24.316L24 19.75l5.25 9.5H24.5z" fill="#2fdf84"/><path d="M15.5 6.75h5.75l-1.5 1.75 1.5 1.75H15.5z" fill="#f3f3f1"/><path d="M15.5 6.75h2.25v3.5H15.5z" fill="#d5dbe1"/><path d="M15.5 13.25l-8.75 16h2.125l7.702-14.085zM25.105 21.75l-1.105-2-2.327 4.566L24.5 29.25h2.125l-2.827-4.934z" fill="#00b871"/><path d="M24.5 30H6.75a.75.75 0 0 1-.658-1.11l2.871-5.25 1.316.72-2.264 4.14h15.203L15.51 14.796l-4.273 7.814-1.316-.72 4.922-9a.75.75 0 0 1 1.312-.008l9 16A.752.752 0 0 1 24.5 30z"/><path d="M29.25 30H24.5v-1.5h3.479l-3.952-7.151-1.687 3.308-1.336-.682 2.328-4.566a.75.75 0 0 1 .655-.409.732.732 0 0 1 .669.387l5.25 9.5A.751.751 0 0 1 29.25 30zM16.25 13.25h-1.5v-6.5A.75.75 0 0 1 15.5 6h5.75a.75.75 0 1 1 .569 1.239L20.738 8.5l1.082 1.262A.751.751 0 0 1 21.25 11h-5zm0-3.75h3.369l-.438-.512a.75.75 0 0 1 0-.977l.438-.511H16.25zM17 21a.747.747 0 0 1-.53-.22l-.97-.97-.97.97a.75.75 0 0 1-1.008.048l-1.43-1.18.955-1.157.904.747 1.018-1.018a.75.75 0 0 1 1.061 0l1.018 1.018.904-.747.955 1.157-1.43 1.18A.746.746 0 0 1 17 21z"/><path d="M2 28.5h32V30H2z"/></svg>