<svg height="512" viewBox="0 0 64 64" width="512" xmlns="http://www.w3.org/2000/svg"><path d="M8 56.82L5 62h57V19z" fill="#cf9e76"/><path d="M45 8c6.08 0 11 4.92 11 11s-4.92 11-11 11-11-4.92-11-11S38.92 8 45 8zm5 11c0-2.76-2.24-5-5-5s-5 2.24-5 5 2.24 5 5 5 5-2.24 5-5z" fill="#fcd770"/><path d="M41.42 33.56v-.01c-1.49-.36-2.9-.95-4.18-1.73l-2.14 1.32-4.24-4.24 1.32-2.14c-.78-1.28-1.37-2.69-1.73-4.18l-.19-.05c.48-.49.74-1.15.74-1.84C31 19.2 29.8 18 28.31 18H28v-2l2.45-.58c.36-1.49.95-2.9 1.73-4.18L30.86 9.1l4.24-4.24 2.14 1.32c1.28-.78 2.69-1.37 4.18-1.73L42 2h6l.58 2.45c1.49.36 2.9.95 4.18 1.73l2.14-1.32 4.24 4.24-1.32 2.14c.78 1.28 1.37 2.69 1.73 4.18L62 16v6l-2.45.58c-.36 1.49-.95 2.9-1.73 4.18l1.32 2.14-4.24 4.24-2.14-1.32c-1.28.78-2.69 1.37-4.18 1.73L48 36h-6zM56 19c0-6.08-4.92-11-11-11s-11 4.92-11 11 4.92 11 11 11 11-4.92 11-11z" fill="#ffc729"/><path d="M8 56.82V59c0 .83-.34 1.58-.88 2.12S5.83 62 5 62c-1.66 0-3-1.34-3-3V40c0 2.21 1.79 4 4 4h2z" fill="#838f9b"/><path d="M20 48.47V51a2.996 2.996 0 0 1-5.12 2.12 3.29 3.29 0 0 1-.54-.73c-.22-.41-.34-.89-.34-1.39v-6c0-.55-.45-1-1-1H6c-2.21 0-4-1.79-4-4v-2h14c2.21 0 4 1.79 4 4z" fill="#838f9b"/><path d="M31 20.69c0 .69-.26 1.35-.74 1.84-.09.1-.19.19-.3.28l-6.34 4.93A5.962 5.962 0 0 1 19.94 29H13v9H2v-6c0-4.42 3.58-8 8-8h8.33c.44 0 .86-.14 1.2-.4l6.75-5.06c.47-.35 1.03-.54 1.62-.54H28.31C29.8 18 31 19.2 31 20.69z" fill="#5cd6b3"/><circle cx="11" cy="18" fill="#f0d0b4" r="6"/><path d="M22.833 50.188l1.63-1.136 1.144 1.64-1.63 1.137zM26.462 47.66l13.614-9.486 1.144 1.64L27.605 49.3z"/><path d="M60.365 14.588a15.895 15.895 0 0 0-1.381-3.332l1.426-2.303-5.363-5.363-2.303 1.426a15.895 15.895 0 0 0-3.332-1.381L48.792 1h-7.584l-.62 2.635a15.895 15.895 0 0 0-3.332 1.381L34.953 3.59 29.59 8.953l1.426 2.303a15.895 15.895 0 0 0-1.381 3.332l-2.635.62v1.916c-.473.119-.925.32-1.316.614L18.933 22.8c-.172.129-.385.2-.6.2h-2.444A6.973 6.973 0 0 0 18 18c0-3.859-3.141-7-7-7s-7 3.141-7 7a6.983 6.983 0 0 0 2.811 5.594C3.42 24.885 1 28.161 1 32v27c0 2.206 1.794 4 4 4h58V15.208zM6 18c0-2.757 2.243-5 5-5s5 2.243 5 5-2.243 5-5 5-5-2.243-5-5zm4 7h8.333c.646 0 1.285-.214 1.8-.601l6.75-5.062c.291-.217.65-.337 1.013-.337h.418c.929 0 1.686.757 1.686 1.687 0 .524-.237 1.009-.651 1.331l-6.338 4.93A5.025 5.025 0 0 1 19.941 28H12v9H3v-5c0-3.859 3.141-7 7-7zm6 12h-2v-7h5.941c1.55 0 3.076-.523 4.298-1.475l5.633-4.381a15.79 15.79 0 0 0 1.144 2.6l-1.426 2.303 5.363 5.363 2.303-1.426c.629.349 1.285.639 1.953.899L21 46.558V42c0-2.757-2.243-5-5-5zM3 39h13c1.654 0 3 1.346 3 3v8.999a2.002 2.002 0 0 1-3.416 1.415A1.99 1.99 0 0 1 14.999 51L15 45c0-1.103-.897-2-2-2H6c-1.654 0-3-1.346-3-3zm6 6h4l-.001 5.998v.001c0 .348.059.683.144 1.011L9 54.905zM3 59V43.974A4.948 4.948 0 0 0 6 45h1v14c0 1.103-.897 2-2 2s-2-.897-2-2zm58 2H8.444A3.959 3.959 0 0 0 9 59v-1.655l5.12-3.578c.018.019.031.042.05.061A3.975 3.975 0 0 0 16.999 55 4.006 4.006 0 0 0 21 50.999v-2.005L40.789 35.22l.419 1.78h7.584l.62-2.635a15.895 15.895 0 0 0 3.332-1.381l2.303 1.426 5.363-5.363-1.426-2.303a15.895 15.895 0 0 0 1.381-3.332l.635-.149zm0-39.792l-2.273.535-.146.596a13.88 13.88 0 0 1-1.617 3.903l-.318.523 1.229 1.986-3.123 3.123-1.986-1.229-.523.318a13.88 13.88 0 0 1-3.903 1.617l-.596.146L47.208 35h-4.416l-.535-2.273-.596-.146a13.88 13.88 0 0 1-3.903-1.617l-.523-.318-1.986 1.229-3.123-3.123 1.229-1.986-.318-.523a13.846 13.846 0 0 1-1.559-3.7A3.655 3.655 0 0 0 32 20.687a3.688 3.688 0 0 0-3-3.617v-.277l2.273-.535.146-.596a13.88 13.88 0 0 1 1.617-3.903l.318-.523-1.229-1.986 3.123-3.123 1.986 1.229.523-.318a13.88 13.88 0 0 1 3.903-1.617l.596-.146L42.792 3h4.416l.535 2.273.596.146a13.88 13.88 0 0 1 3.903 1.617l.523.318 1.986-1.229 3.123 3.123-1.229 1.986.318.523a13.88 13.88 0 0 1 1.617 3.903l.146.596 2.274.536V21z"/><path d="M45 7c-6.617 0-12 5.383-12 12s5.383 12 12 12 12-5.383 12-12S51.617 7 45 7zm0 22c-5.514 0-10-4.486-10-10S39.486 9 45 9s10 4.486 10 10-4.486 10-10 10z"/><path d="M45 13c-3.309 0-6 2.691-6 6s2.691 6 6 6 6-2.691 6-6-2.691-6-6-6zm0 10c-2.206 0-4-1.794-4-4s1.794-4 4-4 4 1.794 4 4-1.794 4-4 4zM57 57h2v2h-2zM57 53h2v2h-2zM57 49h2v2h-2zM11 57h2v2h-2zM15 57h2v2h-2zM19 57h2v2h-2z"/></svg>