<svg height="512" viewBox="0 0 511.886 511.886" width="512" xmlns="http://www.w3.org/2000/svg"><path d="M7.428 234.326l229.945 269.682 229.946-269.682z" fill="#017b4e"/><path d="M467.316 234.325L237.37 504.011l-10.645-12.484 217.356-257.202z" fill="#026841"/><path d="M152.544 234.326l84.829 269.682 84.83-269.682zM408.796 134.202H65.951L7.428 234.326h459.891z" fill="#57be92"/><path d="M237.373 134.202l-84.829 100.124h169.659zM65.951 134.202l86.593 100.124H7.428zM408.796 134.202l-86.593 100.124h145.116z" fill="#98d5b9"/><path d="M467.316 234.325h-23.239l-49.144-84.092 13.866-16.032z" fill="#7acaa6"/><path d="M379.49 11.77c-4.88 11.231-13.434 25.617-27.764 36.122-3.38 2.478-3.38 7.605 0 10.083 14.33 10.506 22.884 24.892 27.764 36.122 2.195 5.051 9.375 5.051 11.569 0 4.88-11.231 13.434-25.617 27.764-36.122 3.38-2.478 3.38-7.605 0-10.083C404.493 37.386 395.939 23 391.059 11.77c-2.195-5.05-9.374-5.05-11.569 0zM469.405 80.212c-4.079 9.387-11.228 21.41-23.205 30.191-2.825 2.071-2.825 6.356 0 8.427 11.977 8.781 19.126 20.804 23.205 30.191 1.834 4.221 7.835 4.221 9.67 0 4.079-9.387 11.228-21.41 23.205-30.191 2.825-2.071 2.825-6.356 0-8.427-11.977-8.781-19.126-20.804-23.205-30.191-1.835-4.221-7.835-4.221-9.67 0z" fill="#fe9738"/><path d="M418.827 57.979c-14.329 10.499-22.889 24.884-27.769 36.114-2.192 5.057-9.375 5.057-11.567 0a104.416 104.416 0 0 0-5.114-10.199c5.104-8.907 7.383-18.403 17.629-25.915 3.381-2.482 3.381-7.605 0-10.087-10.246-7.521-12.525-17.017-17.629-25.924a104.98 104.98 0 0 0 5.114-10.199c2.192-5.048 9.375-5.048 11.567 0 4.879 11.229 13.44 25.615 27.769 36.123 3.381 2.482 3.381 7.605 0 10.087zM502.284 118.828c-11.979 8.785-19.134 20.81-23.208 30.195-1.836 4.224-7.839 4.224-9.675 0a82.792 82.792 0 0 0-6.05-11.482c4.121-6.547 6.134-13.252 13.571-18.713 2.819-2.07 2.819-6.35 0-8.429-7.436-5.451-9.45-12.157-13.571-18.703a83.302 83.302 0 0 0 6.05-11.482c1.836-4.224 7.839-4.224 9.675 0 4.074 9.384 11.229 21.41 23.208 30.185 2.819 2.079 2.819 6.359 0 8.429z" fill="#fe860a"/><g><path d="M415.26 130.424c-1.318-2.256-3.926-3.709-6.464-3.709H65.95c-.024 0-.046.004-.07.005-2.533.026-5.039 1.455-6.346 3.628-.007.012-.017.023-.024.035l-20.16 33.986a7.485 7.485 0 0 0 2.619 10.258 7.486 7.486 0 0 0 10.259-2.619l14.858-25.046 69.083 79.878H20.476l14.684-25.122a7.488 7.488 0 0 0-12.928-7.557l-14.233 24.35-5.928 10.142c-1.942 3.322-3.272 6.904-.452 10.381.04.049.07.103.111.151l229.945 269.681c2.853 3.346 8.508 3.385 11.394 0l99.449-116.635 3.205-3.64a7.486 7.486 0 1 0-11.237-9.896l-3.243 3.683c-.026.03-.053.06-.078.091l-75.605 88.67 72.135-229.325h123.4l-94.407 110.721a7.487 7.487 0 0 0 11.394 9.716l104.932-123.065c.03-.035.052-.075.081-.111.853-1.041 1.397-2.208 1.625-3.417.319-1.697.014-3.477-.939-5.108-.028-.051-58.521-100.126-58.521-100.126zM82.324 141.689h138.893l-68.731 81.125zm155.049 4.095l68.673 81.055H168.701zM23.65 241.814h123.4l72.135 229.325zm213.723 237.243l-74.626-237.243h149.252zm84.888-256.243l-68.732-81.125h138.893zm16.316 4.025l69.036-79.825 46.657 79.825zM347.299 64.014c13.287 9.741 21.105 23.358 25.324 33.068 2.189 5.036 7.154 8.291 12.651 8.291s10.463-3.255 12.652-8.291c4.219-9.709 12.036-23.327 25.324-33.068 3.504-2.569 5.595-6.711 5.595-11.079 0-4.369-2.091-8.511-5.595-11.08-13.287-9.741-21.105-23.359-25.325-33.068-2.189-5.036-7.154-8.291-12.651-8.291s-10.463 3.255-12.651 8.291c-4.219 9.708-12.037 23.327-25.325 33.068-3.504 2.569-5.595 6.711-5.595 11.08.001 4.368 2.092 8.51 5.596 11.079zm37.976-46.85c5.02 10.839 13.691 24.97 27.792 35.769-14.102 10.8-22.773 24.931-27.792 35.769-5.02-10.839-13.692-24.97-27.792-35.769 14.101-10.8 22.771-24.929 27.792-35.769zM506.707 104.365c-10.883-7.978-17.3-19.161-20.765-27.137a12.75 12.75 0 0 0-11.701-7.668h-.001c-5.083 0-9.676 3.01-11.701 7.668-3.466 7.976-9.881 19.159-20.766 27.138-3.242 2.378-5.177 6.21-5.177 10.251s1.936 7.873 5.179 10.251c10.883 7.978 17.299 19.161 20.765 27.136a12.75 12.75 0 0 0 11.702 7.668 12.75 12.75 0 0 0 11.7-7.668c3.467-7.975 9.883-19.158 20.766-27.137 3.242-2.378 5.178-6.21 5.178-10.25 0-4.041-1.936-7.874-5.179-10.252zm-32.467 37.306c-4.217-8.485-10.949-18.789-21.237-27.055 10.289-8.266 17.02-18.57 21.237-27.055 4.218 8.486 10.949 18.789 21.238 27.056-10.29 8.266-17.02 18.569-21.238 27.054z"/></g></svg>