<svg height="512" width="512" xmlns="http://www.w3.org/2000/svg"><path d="M291.356 204.482V88.313h25.254L256 7.5l-60.61 80.813h25.254v116.169z" fill="#9bd069"/><path d="M291.356 181.519A275.092 275.092 0 0 0 256 179.227c-11.88 0-23.673.779-35.356 2.291v22.963h70.711v-22.962z" fill="#7dbe3b"/><path d="M449.951 286.305V170.136h25.254l-60.61-80.813-60.609 80.813h25.254v116.169z" fill="#9bd069"/><path d="M379.24 208.253v78.052h70.711v-30.709c-22.288-19.314-46.016-35.199-70.711-47.343z" fill="#7dbe3b"/><path d="M62.049 286.305V170.136H36.795l60.609-80.813 60.61 80.813H132.76v116.169z" fill="#9bd069"/><path d="M62.049 255.596v30.709h70.711v-78.052c-24.695 12.144-48.423 28.029-70.711 47.343z" fill="#7dbe3b"/><path d="M256 201.451c-161.626 0-248.5 151.524-248.5 151.524S94.374 504.5 256 504.5s248.5-151.524 248.5-151.524S417.626 201.451 256 201.451z" fill="#f6f9f9"/><path d="M269.62 466.076c-64.716 13.934-123.3 3.48-171.669-15.475C137.996 479.941 190.936 504.5 256 504.5c161.626 0 248.5-151.524 248.5-151.524s-10.45-18.215-30.826-42.01c-34.656 57.425-98.625 132.411-204.054 155.11z" fill="#f1f4f6"/><g><circle cx="256" cy="352.976" fill="#cbe2ff" r="101.016"/></g><g><path d="M272.163 307.518h32.325v92.935h-32.325z" fill="#9bd069"/><path d="M239.837 328.732h32.325v71.722h-32.325z" fill="#e28086"/><path d="M207.512 348.935h32.325v51.518h-32.325z" fill="#ffe07d"/></g><g><path d="M511.007 349.245c-.824-1.437-18.812-32.472-53.556-66.684v-41.028c0-4.143-3.357-7.5-7.5-7.5s-7.5 3.357-7.5 7.5v27.064c-17.716-15.602-36.372-28.925-55.711-39.778v-58.684c0-4.143-3.357-7.5-7.5-7.5h-10.255l45.61-60.813 45.609 60.813H449.95a7.499 7.499 0 0 0-7.5 7.5V206.5c0 4.143 3.357 7.5 7.5 7.5s7.5-3.357 7.5-7.5v-28.864h17.754a7.499 7.499 0 0 0 6-12l-60.609-80.813a7.5 7.5 0 0 0-12 0l-60.61 80.813a7.5 7.5 0 0 0 6 12h17.755v43.329a283.962 283.962 0 0 0-5.591-2.651c-21.773-10.018-44.287-16.969-67.294-20.812v-42.109c0-4.143-3.357-7.5-7.5-7.5s-7.5 3.357-7.5 7.5v40.051a260.548 260.548 0 0 0-55.71 0V88.313a7.5 7.5 0 0 0-7.5-7.5H210.39L256 20l45.609 60.813h-10.254a7.499 7.499 0 0 0-7.5 7.5v31.923c0 4.143 3.357 7.5 7.5 7.5s7.5-3.357 7.5-7.5V95.813h17.754a7.499 7.499 0 0 0 6-12L262 3a7.5 7.5 0 0 0-12 0l-60.61 80.813a7.5 7.5 0 0 0 6 12h17.754v101.688c-23.007 3.843-45.521 10.793-67.293 20.812-1.869.86-3.732 1.747-5.591 2.651v-43.329h17.754a7.499 7.499 0 0 0 6-12l-60.61-80.813a7.5 7.5 0 0 0-12 0l-60.609 80.813a7.5 7.5 0 0 0 6 12h17.754V206.5c0 4.143 3.358 7.5 7.5 7.5s7.5-3.357 7.5-7.5v-36.364a7.5 7.5 0 0 0-7.5-7.5H51.795l45.609-60.813 45.61 60.813H132.76a7.5 7.5 0 0 0-7.5 7.5v58.684c-19.339 10.853-37.995 24.176-55.711 39.777v-27.063c0-4.143-3.358-7.5-7.5-7.5s-7.5 3.357-7.5 7.5v41.028C19.806 316.774 1.818 347.809.994 349.246a7.499 7.499 0 0 0 0 7.461c.911 1.589 22.798 39.355 65.118 77.597 24.905 22.504 51.733 40.448 79.739 53.335C180.984 503.804 218.044 512 256 512s75.016-8.196 110.149-24.362c28.006-12.887 54.834-30.831 79.738-53.335 42.32-38.241 64.208-76.008 65.119-77.597a7.501 7.501 0 0 0 .001-7.461zm-75.532 74.25C398.262 457.027 336.917 497 256 497s-142.262-39.973-179.475-73.505c-33.177-29.896-53.681-60.169-60.23-70.52 6.553-10.354 27.056-40.626 60.23-70.52C113.738 248.923 175.084 208.95 256 208.95c80.917 0 142.262 39.973 179.475 73.505 33.178 29.896 53.682 60.169 60.231 70.52-6.553 10.355-27.057 40.627-60.231 70.52z"/><path d="M256 244.459c-59.836 0-108.516 48.681-108.516 108.517S196.164 461.492 256 461.492s108.517-48.681 108.517-108.517S315.836 244.459 256 244.459zm0 202.033c-51.565 0-93.516-41.951-93.516-93.517s41.951-93.517 93.516-93.517 93.517 41.951 93.517 93.517-41.952 93.517-93.517 93.517z"/><path d="M304.488 300.019h-32.325a7.499 7.499 0 0 0-7.5 7.5v13.713h-24.826a7.5 7.5 0 0 0-7.5 7.5v12.703h-24.825a7.5 7.5 0 0 0-7.5 7.5v51.519a7.5 7.5 0 0 0 7.5 7.5h96.976c4.143 0 7.5-3.357 7.5-7.5v-92.935c0-4.143-3.357-7.5-7.5-7.5zm-89.476 56.416h17.325v36.519h-17.325zm32.325-20.204h17.326v56.722h-17.326zm49.651 56.722h-17.325v-77.935h17.325zM429.748 345.476h-40.406c-4.143 0-7.5 3.357-7.5 7.5s3.357 7.5 7.5 7.5h40.406c4.143 0 7.5-3.357 7.5-7.5s-3.357-7.5-7.5-7.5zM406.515 377.801H386.31c-4.143 0-7.5 3.357-7.5 7.5s3.357 7.5 7.5 7.5h20.204c4.143 0 7.5-3.357 7.5-7.5s-3.357-7.5-7.499-7.5zM386.31 328.15h20.204c4.143 0 7.5-3.357 7.5-7.5s-3.357-7.5-7.5-7.5H386.31c-4.143 0-7.5 3.357-7.5 7.5s3.358 7.5 7.5 7.5zM130.159 352.976a7.5 7.5 0 0 0-7.5-7.5H82.252c-4.142 0-7.5 3.357-7.5 7.5s3.358 7.5 7.5 7.5h40.407a7.5 7.5 0 0 0 7.5-7.5zM125.689 377.801h-20.203c-4.142 0-7.5 3.357-7.5 7.5s3.358 7.5 7.5 7.5h20.203c4.142 0 7.5-3.357 7.5-7.5s-3.358-7.5-7.5-7.5zM125.689 313.15h-20.203c-4.142 0-7.5 3.357-7.5 7.5s3.358 7.5 7.5 7.5h20.203c4.142 0 7.5-3.357 7.5-7.5s-3.358-7.5-7.5-7.5z"/></g></svg>